<svg width="229" height="153" viewBox="0 0 229 153" fill="none" xmlns="http://www.w3.org/2000/svg">
<rect y="31.6328" width="34.244" height="100.039" rx="9.23434" fill="white" fill-opacity="0.08"/>
<rect x="0.384764" y="32.0175" width="33.4745" height="99.2692" rx="8.84958" stroke="white" stroke-opacity="0.08" stroke-width="0.769528"/>
<path d="M10.9348 124.818V119.222H14.5201V120.072H11.9486V121.591H14.2742V122.441H11.9486V124.818H10.9348ZM16.7963 124.9C16.3754 124.9 16.012 124.813 15.7059 124.638C15.4017 124.461 15.1676 124.212 15.0036 123.889C14.8397 123.565 14.7577 123.183 14.7577 122.744C14.7577 122.312 14.8397 121.933 15.0036 121.607C15.1694 121.279 15.4008 121.024 15.6977 120.842C15.9947 120.658 16.3436 120.566 16.7443 120.566C17.003 120.566 17.2472 120.608 17.4767 120.692C17.7081 120.774 17.9121 120.901 18.0888 121.074C18.2674 121.248 18.4076 121.468 18.5097 121.736C18.6117 122.002 18.6627 122.319 18.6627 122.687V122.99H15.2222V122.323H17.7145C17.7126 122.134 17.6716 121.965 17.5915 121.818C17.5113 121.668 17.3993 121.551 17.2554 121.465C17.1133 121.38 16.9475 121.337 16.758 121.337C16.5558 121.337 16.3782 121.386 16.2251 121.484C16.0721 121.581 15.9528 121.708 15.8671 121.867C15.7833 122.024 15.7405 122.196 15.7387 122.383V122.966C15.7387 123.21 15.7833 123.419 15.8726 123.594C15.9619 123.767 16.0867 123.9 16.247 123.993C16.4073 124.084 16.595 124.13 16.8099 124.13C16.9539 124.13 17.0841 124.11 17.2007 124.07C17.3173 124.028 17.4184 123.967 17.504 123.886C17.5897 123.806 17.6543 123.707 17.6981 123.589L18.6217 123.692C18.5634 123.937 18.4523 124.15 18.2883 124.332C18.1262 124.512 17.9185 124.653 17.6653 124.753C17.412 124.851 17.1224 124.9 16.7963 124.9ZM19.3894 124.818V119.222H20.3786V121.315H20.4196C20.4706 121.213 20.5426 121.105 20.6355 120.99C20.7284 120.873 20.8541 120.774 21.0126 120.692C21.1711 120.608 21.3733 120.566 21.6193 120.566C21.9436 120.566 22.236 120.649 22.4965 120.815C22.7588 120.979 22.9665 121.222 23.1195 121.545C23.2744 121.865 23.3518 122.259 23.3518 122.725C23.3518 123.186 23.2762 123.578 23.125 123.9C22.9738 124.223 22.7679 124.469 22.5074 124.638C22.2469 124.807 21.9518 124.892 21.622 124.892C21.3815 124.892 21.1821 124.852 21.0236 124.772C20.8651 124.692 20.7375 124.595 20.641 124.482C20.5463 124.367 20.4725 124.259 20.4196 124.157H20.3622V124.818H19.3894ZM20.3595 122.72C20.3595 122.991 20.3978 123.229 20.4743 123.433C20.5526 123.637 20.6647 123.796 20.8104 123.911C20.958 124.024 21.1365 124.08 21.346 124.08C21.5646 124.08 21.7477 124.022 21.8953 123.906C22.0429 123.787 22.154 123.626 22.2287 123.422C22.3052 123.216 22.3435 122.982 22.3435 122.72C22.3435 122.459 22.3061 122.228 22.2314 122.025C22.1567 121.823 22.0456 121.665 21.898 121.55C21.7505 121.435 21.5665 121.378 21.346 121.378C21.1347 121.378 20.9552 121.433 20.8077 121.545C20.6601 121.656 20.5481 121.811 20.4716 122.012C20.3969 122.212 20.3595 122.448 20.3595 122.72Z" fill="white"/>
<rect x="41.9453" y="28.7265" width="34.244" height="100.039" rx="9.23434" fill="white" fill-opacity="0.08"/>
<rect x="42.3301" y="29.1113" width="33.4745" height="99.2692" rx="8.84958" stroke="white" stroke-opacity="0.08" stroke-width="0.769528"/>
<path d="M52.4895 116.317H53.7302L55.3916 120.373H55.4572L57.1187 116.317H58.3593V121.914H57.3865V118.069H57.3346L55.7879 121.898H55.061L53.5143 118.061H53.4623V121.914H52.4895V116.317ZM60.4736 121.999C60.2076 121.999 59.968 121.951 59.7549 121.857C59.5436 121.76 59.3759 121.618 59.2521 121.43C59.13 121.243 59.069 121.011 59.069 120.736C59.069 120.499 59.1127 120.304 59.2001 120.149C59.2876 119.994 59.4069 119.87 59.5581 119.777C59.7093 119.684 59.8797 119.614 60.0691 119.567C60.2604 119.517 60.4581 119.482 60.6621 119.46C60.9081 119.435 61.1076 119.412 61.2606 119.392C61.4136 119.37 61.5248 119.337 61.594 119.293C61.665 119.248 61.7006 119.178 61.7006 119.083V119.067C61.7006 118.861 61.6395 118.701 61.5175 118.588C61.3954 118.475 61.2196 118.419 60.9901 118.419C60.7478 118.419 60.5556 118.472 60.4135 118.577C60.2732 118.683 60.1784 118.808 60.1293 118.952L59.2056 118.821C59.2785 118.566 59.3987 118.352 59.5663 118.181C59.7339 118.008 59.9389 117.879 60.1812 117.793C60.4235 117.706 60.6913 117.662 60.9846 117.662C61.1868 117.662 61.3881 117.686 61.5885 117.733C61.7889 117.78 61.972 117.859 62.1378 117.968C62.3036 118.075 62.4366 118.222 62.5368 118.408C62.6388 118.594 62.6898 118.826 62.6898 119.105V121.914H61.7388V121.337H61.706C61.6459 121.454 61.5612 121.563 61.4519 121.665C61.3444 121.766 61.2087 121.847 61.0447 121.909C60.8826 121.969 60.6922 121.999 60.4736 121.999ZM60.7305 121.272C60.929 121.272 61.1012 121.233 61.2469 121.154C61.3927 121.074 61.5047 120.968 61.5831 120.837C61.6632 120.706 61.7033 120.563 61.7033 120.408V119.914C61.6723 119.939 61.6195 119.963 61.5448 119.985C61.4719 120.007 61.3899 120.026 61.2989 120.042C61.2078 120.058 61.1176 120.073 61.0283 120.086C60.939 120.099 60.8616 120.11 60.796 120.119C60.6485 120.139 60.5164 120.171 60.3998 120.217C60.2832 120.263 60.1912 120.326 60.1238 120.408C60.0564 120.488 60.0227 120.592 60.0227 120.72C60.0227 120.902 60.0892 121.04 60.2222 121.132C60.3552 121.225 60.5246 121.272 60.7305 121.272ZM63.5306 121.914V117.717H64.4898V118.416H64.5335C64.61 118.174 64.7412 117.987 64.927 117.856C65.1147 117.723 65.3287 117.656 65.5692 117.656C65.6238 117.656 65.6849 117.659 65.7523 117.665C65.8215 117.668 65.8789 117.675 65.9244 117.684V118.594C65.8825 118.579 65.816 118.566 65.725 118.556C65.6357 118.543 65.5492 118.536 65.4653 118.536C65.285 118.536 65.1228 118.576 64.9789 118.654C64.8368 118.73 64.7248 118.837 64.6428 118.974C64.5608 119.11 64.5198 119.268 64.5198 119.446V121.914H63.5306Z" fill="white"/>
<rect x="83.875" y="25.8203" width="34.244" height="100.039" rx="9.23434" fill="white" fill-opacity="0.08"/>
<rect x="84.2598" y="26.205" width="33.4745" height="99.2692" rx="8.84958" stroke="white" stroke-opacity="0.08" stroke-width="0.769528"/>
<path d="M95.5363 119.004H94.4542L96.4245 113.407H97.676L99.649 119.004H98.5669L97.0721 114.555H97.0284L95.5363 119.004ZM95.5719 116.809H98.5232V117.624H95.5719V116.809ZM100.189 120.578V114.806H101.161V115.501H101.219C101.27 115.399 101.342 115.29 101.435 115.175C101.528 115.059 101.653 114.959 101.812 114.877C101.97 114.794 102.173 114.752 102.418 114.752C102.743 114.752 103.035 114.835 103.296 115C103.558 115.164 103.766 115.408 103.919 115.73C104.074 116.051 104.151 116.444 104.151 116.911C104.151 117.372 104.075 117.763 103.924 118.086C103.773 118.408 103.567 118.654 103.307 118.823C103.046 118.993 102.751 119.078 102.421 119.078C102.181 119.078 101.981 119.038 101.823 118.957C101.664 118.877 101.537 118.781 101.44 118.668C101.345 118.553 101.272 118.445 101.219 118.343H101.178V120.578H100.189ZM101.159 116.905C101.159 117.177 101.197 117.414 101.273 117.618C101.352 117.822 101.464 117.982 101.61 118.097C101.757 118.21 101.936 118.266 102.145 118.266C102.364 118.266 102.547 118.208 102.694 118.091C102.842 117.973 102.953 117.811 103.028 117.607C103.104 117.402 103.143 117.167 103.143 116.905C103.143 116.645 103.105 116.413 103.031 116.211C102.956 116.009 102.845 115.85 102.697 115.736C102.55 115.621 102.366 115.563 102.145 115.563C101.934 115.563 101.754 115.619 101.607 115.73C101.459 115.841 101.347 115.997 101.271 116.197C101.196 116.398 101.159 116.634 101.159 116.905ZM104.844 119.004V114.806H105.803V115.506H105.847C105.924 115.264 106.055 115.077 106.241 114.946C106.428 114.813 106.642 114.746 106.883 114.746C106.937 114.746 106.998 114.749 107.066 114.754C107.135 114.758 107.193 114.765 107.238 114.774V115.684C107.196 115.669 107.13 115.656 107.039 115.645C106.949 115.633 106.863 115.626 106.779 115.626C106.599 115.626 106.436 115.665 106.293 115.744C106.15 115.82 106.038 115.927 105.956 116.063C105.874 116.2 105.833 116.358 105.833 116.536V119.004H104.844Z" fill="white"/>
<rect x="125.812" y="22.914" width="34.244" height="100.039" rx="9.23434" fill="white" fill-opacity="0.08"/>
<rect x="126.197" y="23.2988" width="33.4745" height="99.2692" rx="8.84958" stroke="white" stroke-opacity="0.08" stroke-width="0.769528"/>
<path d="M138.971 110.505H139.977V114.44C139.975 114.801 139.898 115.111 139.747 115.372C139.596 115.631 139.385 115.83 139.113 115.97C138.843 116.109 138.529 116.178 138.17 116.178C137.842 116.178 137.547 116.12 137.285 116.003C137.024 115.885 136.818 115.71 136.665 115.478C136.512 115.247 136.435 114.959 136.435 114.615H137.443C137.445 114.766 137.478 114.896 137.542 115.006C137.607 115.115 137.698 115.199 137.812 115.257C137.927 115.315 138.059 115.345 138.209 115.345C138.371 115.345 138.508 115.311 138.621 115.243C138.734 115.174 138.82 115.072 138.878 114.937C138.938 114.803 138.969 114.637 138.971 114.44V110.505ZM143.554 114.336V111.904H144.543V116.102H143.584V115.355H143.541C143.446 115.59 143.29 115.783 143.073 115.932C142.858 116.081 142.593 116.156 142.278 116.156C142.003 116.156 141.76 116.095 141.548 115.973C141.339 115.849 141.175 115.67 141.057 115.435C140.938 115.198 140.879 114.912 140.879 114.577V111.904H141.868V114.424C141.868 114.69 141.941 114.901 142.087 115.058C142.232 115.214 142.424 115.293 142.661 115.293C142.806 115.293 142.948 115.257 143.084 115.186C143.221 115.115 143.333 115.009 143.42 114.869C143.51 114.727 143.554 114.549 143.554 114.336ZM146.396 113.642V116.102H145.407V111.904H146.352V112.617H146.401C146.498 112.382 146.652 112.196 146.863 112.057C147.076 111.919 147.34 111.849 147.653 111.849C147.943 111.849 148.195 111.911 148.41 112.035C148.627 112.159 148.794 112.339 148.913 112.574C149.033 112.809 149.092 113.094 149.09 113.429V116.102H148.101V113.582C148.101 113.301 148.028 113.082 147.883 112.923C147.739 112.765 147.539 112.686 147.284 112.686C147.111 112.686 146.957 112.724 146.822 112.8C146.689 112.875 146.585 112.983 146.508 113.126C146.433 113.268 146.396 113.44 146.396 113.642Z" fill="white"/>
<g filter="url(#filter0_d_1_127)">
<rect x="167.75" y="20.0078" width="34.244" height="100.039" rx="9.23434" fill="url(#paint0_linear_1_127)"/>
</g>
<path d="M182.448 107.599H183.453V111.534C183.451 111.894 183.375 112.205 183.224 112.466C183.072 112.724 182.861 112.924 182.59 113.064C182.32 113.203 182.006 113.272 181.647 113.272C181.319 113.272 181.024 113.213 180.761 113.097C180.501 112.978 180.294 112.804 180.141 112.572C179.988 112.341 179.912 112.053 179.912 111.709H180.92C180.922 111.86 180.955 111.99 181.018 112.099C181.084 112.209 181.174 112.293 181.289 112.351C181.404 112.409 181.536 112.438 181.685 112.438C181.847 112.438 181.985 112.405 182.098 112.337C182.211 112.268 182.296 112.166 182.355 112.031C182.415 111.896 182.446 111.731 182.448 111.534V107.599ZM187.031 111.43V108.998H188.02V113.195H187.061V112.449H187.017C186.922 112.684 186.767 112.876 186.55 113.026C186.335 113.175 186.07 113.25 185.755 113.25C185.479 113.25 185.236 113.189 185.025 113.067C184.815 112.943 184.651 112.763 184.533 112.528C184.415 112.292 184.355 112.006 184.355 111.67V108.998H185.345V111.517C185.345 111.783 185.418 111.995 185.563 112.151C185.709 112.308 185.9 112.386 186.137 112.386C186.283 112.386 186.424 112.351 186.561 112.28C186.697 112.209 186.809 112.103 186.897 111.963C186.986 111.821 187.031 111.643 187.031 111.43ZM189.873 107.599V113.195H188.883V107.599H189.873Z" fill="white"/>
<defs>
<filter id="filter0_d_1_127" x="141.586" y="1.62125e-05" width="86.5719" height="152.367" filterUnits="userSpaceOnUse" color-interpolation-filters="sRGB">
<feFlood flood-opacity="0" result="BackgroundImageFix"/>
<feColorMatrix in="SourceAlpha" type="matrix" values="0 0 0 0 0 0 0 0 0 0 0 0 0 0 0 0 0 0 127 0" result="hardAlpha"/>
<feMorphology radius="4.61717" operator="erode" in="SourceAlpha" result="effect1_dropShadow_1_127"/>
<feOffset dy="6.15623"/>
<feGaussianBlur stdDeviation="15.3906"/>
<feComposite in2="hardAlpha" operator="out"/>
<feColorMatrix type="matrix" values="0 0 0 0 1 0 0 0 0 0.843137 0 0 0 0 0.45098 0 0 0 0.24 0"/>
<feBlend mode="normal" in2="BackgroundImageFix" result="effect1_dropShadow_1_127"/>
<feBlend mode="normal" in="SourceGraphic" in2="effect1_dropShadow_1_127" result="shape"/>
</filter>
<linearGradient id="paint0_linear_1_127" x1="185.064" y1="120.046" x2="216.85" y2="108.648" gradientUnits="userSpaceOnUse">
<stop stop-color="#FFC657"/>
<stop offset="1" stop-color="#FFD977"/>
</linearGradient>
</defs>
</svg>
